# xmcd
#
# Track frame offsets:
# 150
# 18778
# 33562
# 52313
# 67164
# 85189
# 102175
# 117610
# 137576
# 152135
# 164488
# 181435
# 196522
# 211508
# 226131
# 240657
# 255570
# 277899
# 295122
# 309988
#
# Disc length: 4346 seconds
#
#
# Revision: 0
# Processed by: cddbd v1.5.2PL0 Copyright (c) Steve Scherf et al.
# Submitted via: FreeRIP 2.945 
#
DISCID=1110f814
DTITLE=Silvano Sales - O Cantor Apaixonado
DYEAR=2009
DGENRE=Pisadinha
TTITLE0=Nao tente me impedir
TTITLE1=Dificil nao falar de amor
TTITLE2=deus e eu no sertao
TTITLE3=de tanto te querer
TTITLE4=ainda existe amor em nos
TTITLE5=pense em mim
TTITLE6=esse alguem sou eu
TTITLE7=agora eu ja sei
TTITLE8=me liga
TTITLE9=uma chance
TTITLE10=coincidencia
TTITLE11=amigos
TTITLE12=eu sabia
TTITLE13=feito chuva de verao
TTITLE14=inseguranca
TTITLE15=so saudade
TTITLE16=eu nao vou
TTITLE17=sentimentos
TTITLE18=chora e me liga
TTITLE19=amor de cristal
EXTD=O cantor Apaixonado - Silvano Sales
EXTT0=
EXTT1=
EXTT2=
EXTT3=
EXTT4=
EXTT5=
EXTT6=
EXTT7=
EXTT8=
EXTT9=
EXTT10=
EXTT11=
EXTT12=
EXTT13=
EXTT14=
EXTT15=
EXTT16=
EXTT17=
EXTT18=
EXTT19=
PLAYORDER=
